<svg>
    <symbol id="logo" width="112" height="43" viewBox="0 0 112 43" fill="none"
        xmlns="http://www.w3.org/2000/svg">
        <rect x="3.67383" y="4.97852" width="42.2674" height="37.3367" rx="6.96951" fill="#6C5FBC" />
        <rect x="1.0075" y="1.0075" width="40.2524" height="35.3217" rx="5.96201" fill="#DBD9EE"
            stroke="#6C5FBC" stroke-width="2.01499" />
        <path d="M32.624 12.0518L9.72243 11.9505" stroke="#6C5FBC" stroke-width="2.08432"
            stroke-linecap="round" stroke-linejoin="round" />
        <path
            d="M32.6096 16.6368L27.5162 16.6142C25.4095 16.6049 23.7056 14.5428 23.7133 12.0119C23.7211 9.48095 25.4376 7.43398 27.5443 7.4433L32.6377 7.46582"
            stroke="#6C5FBC" stroke-width="2.08432" stroke-linecap="round" stroke-linejoin="round" />
        <path
            d="M17.3611 26.7221L10.7067 26.648C10.1614 26.6456 9.70458 26.1076 9.6942 25.4525L9.64992 23.7254C9.63962 23.0405 10.0999 22.462 10.6699 22.4645L17.25 22.5383L17.3611 26.7221Z"
            stroke="#6C5FBC" stroke-width="2.08432" stroke-linecap="round" stroke-linejoin="round" />
        <path
            d="M27.8134 29.2108L18.4076 29.0948C17.8624 29.0924 17.4055 28.5544 17.3951 27.8993L17.2752 22.5242L32.555 22.7108L32.5653 23.3957C32.6421 26.6417 30.5025 29.2525 27.8134 29.2108Z"
            stroke="#6C5FBC" stroke-width="2.08432" stroke-linecap="round" stroke-linejoin="round" />
        <path
            d="M69.3081 21.6458C69.3081 22.0693 69.2798 22.4505 69.2234 22.7893H60.6472C60.7178 23.6363 61.0142 24.2999 61.5366 24.7798C62.0589 25.2598 62.7012 25.4998 63.4635 25.4998C64.5647 25.4998 65.3482 25.0269 65.8141 24.081H69.0116C68.6728 25.2104 68.0234 26.1421 67.0634 26.8762C66.1035 27.5962 64.9247 27.9562 63.5271 27.9562C62.3977 27.9562 61.3813 27.7092 60.4778 27.2151C59.5884 26.7068 58.8896 25.9939 58.3814 25.0763C57.8873 24.1587 57.6402 23.0999 57.6402 21.8999C57.6402 20.6859 57.8873 19.62 58.3814 18.7024C58.8755 17.7848 59.5672 17.0789 60.4566 16.5848C61.346 16.0907 62.3695 15.8437 63.5271 15.8437C64.6423 15.8437 65.6376 16.0836 66.5129 16.5636C67.4022 17.0436 68.0869 17.7283 68.5669 18.6177C69.061 19.4929 69.3081 20.5023 69.3081 21.6458ZM66.2376 20.7988C66.2235 20.0365 65.9482 19.4294 65.4117 18.9777C64.8753 18.5118 64.2188 18.2789 63.4424 18.2789C62.7083 18.2789 62.0871 18.5047 61.5789 18.9565C61.0848 19.3941 60.7813 20.0082 60.6683 20.7988H66.2376ZM70.7096 21.8576C70.7096 20.6717 70.9426 19.62 71.4084 18.7024C71.8884 17.7848 72.5308 17.0789 73.3354 16.5848C74.1542 16.0907 75.0648 15.8437 76.0671 15.8437C76.9424 15.8437 77.7047 16.0201 78.3541 16.373C79.0176 16.726 79.547 17.1707 79.9423 17.7071V16.0342H82.9281V27.7656H79.9423V26.0504C79.5611 26.601 79.0317 27.0598 78.3541 27.4268C77.6906 27.7797 76.9212 27.9562 76.0459 27.9562C75.0577 27.9562 74.1542 27.7021 73.3354 27.1939C72.5308 26.6857 71.8884 25.9727 71.4084 25.0551C70.9426 24.1234 70.7096 23.0575 70.7096 21.8576ZM79.9423 21.8999C79.9423 21.18 79.8011 20.5659 79.5188 20.0576C79.2364 19.5353 78.8553 19.14 78.3753 18.8718C77.8953 18.5894 77.38 18.4483 76.8294 18.4483C76.2789 18.4483 75.7707 18.5824 75.3048 18.8506C74.8389 19.1188 74.4578 19.5141 74.1613 20.0365C73.8789 20.5447 73.7378 21.1517 73.7378 21.8576C73.7378 22.5634 73.8789 23.1846 74.1613 23.721C74.4578 24.2434 74.8389 24.6457 75.3048 24.9281C75.7848 25.2104 76.293 25.3516 76.8294 25.3516C77.38 25.3516 77.8953 25.2175 78.3753 24.9492C78.8553 24.6669 79.2364 24.2716 79.5188 23.7634C79.8011 23.2411 79.9423 22.6199 79.9423 21.8999ZM89.2752 18.4695V24.1446C89.2752 24.5398 89.3669 24.8292 89.5505 25.0128C89.7481 25.1822 90.0728 25.2669 90.5246 25.2669H91.901V27.7656H90.0375C87.5388 27.7656 86.2894 26.5515 86.2894 24.1234V18.4695H84.8918V16.0342H86.2894V13.1332H89.2752V16.0342H91.901V18.4695H89.2752ZM96.9979 12.0955V27.7656H94.0333V12.0955H96.9979ZM111.15 16.0342L103.887 33.3137H100.732L103.273 27.4692L98.5717 16.0342H101.896L104.924 24.2293L107.995 16.0342H111.15Z"
            fill="#6C5FBC" />
    </symbol>
    <symbol id="trustpilot" width="123" height="31" viewBox="0 0 123 31" fill="none"
        xmlns="http://www.w3.org/2000/svg">
        <path
            d="M32.3291 10.7012H44.7726V13.0177H39.8731V26.0762H37.1876V13.0177H32.3086L32.3291 10.7012ZM44.2396 14.9447H46.5356V17.0972H46.5766C46.6586 16.7897 46.8021 16.5027 47.0071 16.2157C47.2121 15.9287 47.4581 15.6622 47.7656 15.4367C48.0526 15.1907 48.3806 15.0062 48.7496 14.8627C49.0981 14.7192 49.4671 14.6372 49.8361 14.6372C50.1231 14.6372 50.3281 14.6577 50.4306 14.6577C50.5331 14.6782 50.6561 14.6987 50.7586 14.6987V17.0562C50.5946 17.0152 50.4101 16.9947 50.2256 16.9742C50.0411 16.9537 49.8771 16.9332 49.6926 16.9332C49.2826 16.9332 48.8931 17.0152 48.5241 17.1792C48.1551 17.3432 47.8476 17.5892 47.5606 17.8967C47.2941 18.2247 47.0686 18.6142 46.9046 19.0857C46.7406 19.5572 46.6586 20.1107 46.6586 20.7257V26.0147H44.1986L44.2396 14.9447ZM62.0336 26.0762H59.6146V24.5182H59.5736C59.2661 25.0922 58.8151 25.5227 58.2206 25.8712C57.6261 26.2197 57.0111 26.3837 56.3961 26.3837C54.9406 26.3837 53.8746 26.0352 53.2186 25.2972C52.5626 24.5797 52.2346 23.4727 52.2346 22.0172V14.9447H54.6946V21.7712C54.6946 22.7552 54.8791 23.4522 55.2686 23.8417C55.6376 24.2517 56.1706 24.4567 56.8471 24.4567C57.3596 24.4567 57.7901 24.3747 58.1386 24.2107C58.4871 24.0467 58.7741 23.8417 58.9791 23.5752C59.2046 23.3087 59.3481 22.9807 59.4506 22.6117C59.5531 22.2427 59.5941 21.8327 59.5941 21.4022V14.9447H62.0541V26.0762H62.0336ZM66.2156 22.5092C66.2976 23.2267 66.5641 23.7187 67.0356 24.0262C67.5071 24.3132 68.0811 24.4567 68.7371 24.4567C68.9626 24.4567 69.2291 24.4362 69.5161 24.3952C69.8031 24.3542 70.0901 24.2927 70.3361 24.1902C70.6026 24.0877 70.8076 23.9442 70.9716 23.7392C71.1356 23.5342 71.2176 23.2882 71.1971 22.9807C71.1766 22.6732 71.0741 22.4067 70.8486 22.2017C70.6231 21.9967 70.3566 21.8532 70.0286 21.7097C69.7006 21.5867 69.3111 21.4842 68.8806 21.4022C68.4501 21.3202 68.0196 21.2177 67.5686 21.1152C67.1176 21.0127 66.6666 20.8897 66.2361 20.7462C65.8056 20.6027 65.4366 20.4182 65.0881 20.1517C64.7601 19.9057 64.4731 19.5982 64.2886 19.2087C64.0836 18.8192 63.9811 18.3682 63.9811 17.7942C63.9811 17.1792 64.1246 16.6872 64.4321 16.2772C64.7191 15.8672 65.1086 15.5392 65.5596 15.2932C66.0106 15.0472 66.5231 14.8627 67.0766 14.7602C67.6301 14.6577 68.1631 14.6167 68.6551 14.6167C69.2291 14.6167 69.7826 14.6782 70.2951 14.8012C70.8076 14.9242 71.2996 15.1087 71.7096 15.3957C72.1401 15.6622 72.4886 16.0312 72.7551 16.4617C73.0421 16.8922 73.2061 17.4252 73.2881 18.0402H70.7256C70.6026 17.4457 70.3361 17.0562 69.9261 16.8512C69.4956 16.6462 69.0241 16.5437 68.4706 16.5437C68.3066 16.5437 68.0811 16.5642 67.8556 16.5847C67.6096 16.6257 67.4046 16.6667 67.1791 16.7487C66.9741 16.8307 66.7896 16.9537 66.6461 17.0972C66.5026 17.2407 66.4206 17.4457 66.4206 17.6917C66.4206 17.9992 66.5231 18.2247 66.7281 18.4092C66.9331 18.5937 67.1996 18.7372 67.5481 18.8807C67.8761 19.0037 68.2656 19.1062 68.6961 19.1882C69.1266 19.2702 69.5776 19.3727 70.0286 19.4752C70.4796 19.5777 70.9101 19.7007 71.3406 19.8442C71.7711 19.9877 72.1606 20.1722 72.4886 20.4387C72.8166 20.6847 73.1036 20.9922 73.3086 21.3612C73.5136 21.7302 73.6161 22.2017 73.6161 22.7347C73.6161 23.3907 73.4726 23.9442 73.1651 24.4157C72.8576 24.8667 72.4681 25.2562 71.9966 25.5432C71.5251 25.8302 70.9716 26.0352 70.3976 26.1787C69.8031 26.3017 69.2291 26.3837 68.6551 26.3837C67.9581 26.3837 67.3021 26.3017 66.7076 26.1377C66.1131 25.9737 65.5801 25.7277 65.1496 25.4202C64.7191 25.0922 64.3706 24.7027 64.1246 24.2107C63.8786 23.7392 63.7351 23.1652 63.7146 22.4887H66.1951V22.5092H66.2156ZM74.3131 14.9447H76.1786V11.5827H78.6386V14.9242H80.8526V16.7487H78.6386V22.6937C78.6386 22.9602 78.6591 23.1652 78.6796 23.3702C78.7001 23.5547 78.7616 23.7187 78.8231 23.8417C78.9051 23.9647 79.0281 24.0672 79.1716 24.1287C79.3356 24.1902 79.5406 24.2312 79.8276 24.2312C79.9916 24.2312 80.1761 24.2312 80.3401 24.2107C80.5041 24.1902 80.6886 24.1697 80.8526 24.1287V26.0352C80.5861 26.0762 80.3196 26.0967 80.0531 26.1172C79.7866 26.1582 79.5406 26.1582 79.2536 26.1582C78.5976 26.1582 78.0851 26.0967 77.6956 25.9737C77.3061 25.8507 76.9986 25.6662 76.7731 25.4407C76.5476 25.1947 76.4041 24.9077 76.3221 24.5592C76.2401 24.2107 76.1991 23.7802 76.1786 23.3292V16.7692H74.3131V14.9037V14.9447ZM82.5746 14.9447H84.8911V16.4617H84.9321C85.2806 15.8057 85.7521 15.3547 86.3671 15.0677C86.9821 14.7807 87.6381 14.6372 88.3761 14.6372C89.2576 14.6372 90.0161 14.7807 90.6721 15.1087C91.3281 15.4162 91.8611 15.8262 92.2916 16.3797C92.7221 16.9127 93.0501 17.5482 93.2551 18.2657C93.4601 18.9832 93.5831 19.7622 93.5831 20.5617C93.5831 21.3202 93.4806 22.0377 93.2961 22.7347C93.0911 23.4317 92.8041 24.0672 92.4146 24.6002C92.0251 25.1332 91.5331 25.5637 90.9181 25.8917C90.3031 26.2197 89.6061 26.3837 88.7861 26.3837C88.4376 26.3837 88.0686 26.3427 87.7201 26.2812C87.3716 26.2197 87.0231 26.1172 86.6951 25.9737C86.3671 25.8302 86.0596 25.6457 85.7931 25.4202C85.5061 25.1947 85.2806 24.9282 85.0961 24.6412H85.0551V30.1967H82.5951V14.9447H82.5746ZM91.1641 20.5207C91.1641 20.0287 91.1026 19.5367 90.9591 19.0652C90.8361 18.5937 90.6311 18.1837 90.3646 17.8147C90.0981 17.4457 89.7701 17.1587 89.4011 16.9332C89.0116 16.7077 88.5606 16.6052 88.0686 16.6052C87.0436 16.6052 86.2646 16.9537 85.7316 17.6712C85.2191 18.3887 84.9526 19.3522 84.9526 20.5412C84.9526 21.1152 85.0141 21.6277 85.1576 22.0992C85.3011 22.5707 85.4856 22.9807 85.7726 23.3292C86.0391 23.6777 86.3671 23.9442 86.7566 24.1492C87.1461 24.3542 87.5766 24.4567 88.0891 24.4567C88.6631 24.4567 89.1141 24.3337 89.5036 24.1082C89.8931 23.8827 90.2006 23.5752 90.4671 23.2267C90.7131 22.8577 90.8976 22.4477 91.0001 21.9762C91.1026 21.4842 91.1641 21.0127 91.1641 20.5207ZM95.4896 10.7012H97.9496V13.0177H95.4896V10.7012ZM95.4896 14.9447H97.9496V26.0762H95.4896V14.9447ZM100.143 10.7012H102.603V26.0762H100.143V10.7012ZM110.106 26.3837C109.225 26.3837 108.425 26.2402 107.728 25.9327C107.031 25.6252 106.457 25.2357 105.965 24.7232C105.494 24.2107 105.125 23.5752 104.879 22.8577C104.633 22.1402 104.489 21.3407 104.489 20.5002C104.489 19.6597 104.612 18.8807 104.879 18.1632C105.125 17.4457 105.494 16.8307 105.965 16.2977C106.437 15.7852 107.031 15.3752 107.728 15.0882C108.425 14.8012 109.225 14.6372 110.106 14.6372C110.988 14.6372 111.787 14.7807 112.484 15.0882C113.181 15.3752 113.755 15.7852 114.247 16.2977C114.719 16.8102 115.088 17.4457 115.334 18.1632C115.58 18.8807 115.723 19.6597 115.723 20.5002C115.723 21.3612 115.6 22.1402 115.334 22.8577C115.067 23.5752 114.719 24.1902 114.247 24.7232C113.776 25.2357 113.181 25.6457 112.484 25.9327C111.787 26.2197 111.008 26.3837 110.106 26.3837ZM110.106 24.4362C110.639 24.4362 111.131 24.3132 111.521 24.0877C111.931 23.8622 112.238 23.5547 112.505 23.1857C112.771 22.8167 112.956 22.3862 113.079 21.9352C113.202 21.4637 113.263 20.9922 113.263 20.5002C113.263 20.0287 113.202 19.5572 113.079 19.0857C112.956 18.6142 112.771 18.2042 112.505 17.8352C112.238 17.4662 111.91 17.1792 111.521 16.9537C111.111 16.7282 110.639 16.6052 110.106 16.6052C109.573 16.6052 109.081 16.7282 108.692 16.9537C108.282 17.1792 107.974 17.4867 107.708 17.8352C107.441 18.2042 107.257 18.6142 107.134 19.0857C107.011 19.5572 106.949 20.0287 106.949 20.5002C106.949 20.9922 107.011 21.4637 107.134 21.9352C107.257 22.4067 107.441 22.8167 107.708 23.1857C107.974 23.5547 108.302 23.8622 108.692 24.0877C109.102 24.3337 109.573 24.4362 110.106 24.4362ZM116.461 14.9447H118.327V11.5827H120.787V14.9242H123.001V16.7487H120.787V22.6937C120.787 22.9602 120.807 23.1652 120.828 23.3702C120.848 23.5547 120.91 23.7187 120.971 23.8417C121.053 23.9647 121.176 24.0672 121.32 24.1287C121.484 24.1902 121.689 24.2312 121.976 24.2312C122.14 24.2312 122.324 24.2312 122.488 24.2107C122.652 24.1902 122.837 24.1697 123.001 24.1287V26.0352C122.734 26.0762 122.468 26.0967 122.201 26.1172C121.935 26.1582 121.689 26.1582 121.402 26.1582C120.746 26.1582 120.233 26.0967 119.844 25.9737C119.454 25.8507 119.147 25.6662 118.921 25.4407C118.696 25.1947 118.552 24.9077 118.47 24.5592C118.388 24.2107 118.347 23.7802 118.327 23.3292V16.7692H116.461V14.9037V14.9447Z"
            fill="black" />
        <path
            d="M29.4585 10.701H18.204L14.7395 0L11.2545 10.701L0 10.6805L9.10199 17.302L5.617 28.003L14.719 21.3815L23.821 28.003L20.3565 17.302L29.4585 10.701Z"
            fill="#00B67A" />
        <path d="M21.1362 19.7208L20.3572 17.3018L14.7402 21.3813L21.1362 19.7208Z" fill="#005128" />
    </symbol>

    <symbol id='stars' width="96" height="16" viewBox="0 0 96 16" fill="none"
        xmlns="http://www.w3.org/2000/svg">
        <g opacity="0.8">
            <path
                d="M6.95816 0.741543C7.27942 -0.247181 8.6782 -0.247181 8.99945 0.741543L10.1473 4.2742C10.291 4.71637 10.703 5.01575 11.1679 5.01575H14.8824C15.922 5.01575 16.3542 6.34607 15.5132 6.95713L12.5081 9.14044C12.132 9.41371 11.9746 9.89811 12.1183 10.3403L13.2661 13.8729C13.5874 14.8617 12.4557 15.6838 11.6147 15.0728L8.6096 12.8895C8.23347 12.6162 7.72415 12.6162 7.34801 12.8895L4.34295 15.0728C3.5019 15.6838 2.37026 14.8617 2.69151 13.8729L3.83935 10.3403C3.98302 9.89811 3.82563 9.41371 3.44949 9.14044L0.444434 6.95713C-0.396625 6.34607 0.0356224 5.01575 1.07523 5.01575H4.78969C5.25461 5.01575 5.66666 4.71637 5.81033 4.2742L6.95816 0.741543Z"
                fill="#F59E0B" />
            <path
                d="M26.9152 0.741543C27.2364 -0.247181 28.6352 -0.247181 28.9565 0.741543L30.1043 4.2742C30.248 4.71637 30.66 5.01575 31.125 5.01575H34.8394C35.879 5.01575 36.3113 6.34607 35.4702 6.95713L32.4652 9.14044C32.089 9.41371 31.9316 9.89811 32.0753 10.3403L33.2231 13.8729C33.5444 14.8617 32.4128 15.6838 31.5717 15.0728L28.5666 12.8895C28.1905 12.6162 27.6812 12.6162 27.305 12.8895L24.3 15.0728C23.4589 15.6838 22.3273 14.8617 22.6485 13.8729L23.7964 10.3403C23.94 9.89811 23.7827 9.41371 23.4065 9.14044L20.4015 6.95713C19.5604 6.34607 19.9927 5.01575 21.0323 5.01575H24.7467C25.2116 5.01575 25.6237 4.71637 25.7674 4.2742L26.9152 0.741543Z"
                fill="#F59E0B" />
            <path
                d="M46.8722 0.741543C47.1935 -0.247181 48.5923 -0.247181 48.9135 0.741543L50.0613 4.2742C50.205 4.71637 50.6171 5.01575 51.082 5.01575H54.7965C55.8361 5.01575 56.2683 6.34607 55.4272 6.95713L52.4222 9.14044C52.0461 9.41371 51.8887 9.89811 52.0323 10.3403L53.1802 13.8729C53.5014 14.8617 52.3698 15.6838 51.5287 15.0728L48.5237 12.8895C48.1475 12.6162 47.6382 12.6162 47.2621 12.8895L44.257 15.0728C43.416 15.6838 42.2843 14.8617 42.6056 13.8729L43.7534 10.3403C43.8971 9.89811 43.7397 9.41371 43.3636 9.14044L40.3585 6.95713C39.5174 6.34607 39.9497 5.01575 40.9893 5.01575H44.7037C45.1687 5.01575 45.5807 4.71637 45.7244 4.2742L46.8722 0.741543Z"
                fill="#F59E0B" />
            <path
                d="M66.8312 0.741543C67.1525 -0.247181 68.5512 -0.247181 68.8725 0.741543L70.0203 4.2742C70.164 4.71637 70.5761 5.01575 71.041 5.01575H74.7554C75.795 5.01575 76.2273 6.34607 75.3862 6.95713L72.3812 9.14044C72.005 9.41371 71.8476 9.89811 71.9913 10.3403L73.1391 13.8729C73.4604 14.8617 72.3288 15.6838 71.4877 15.0728L68.4826 12.8895C68.1065 12.6162 67.5972 12.6162 67.2211 12.8895L64.216 15.0728C63.3749 15.6838 62.2433 14.8617 62.5646 13.8729L63.7124 10.3403C63.8561 9.89811 63.6987 9.41371 63.3225 9.14044L60.3175 6.95713C59.4764 6.34607 59.9087 5.01575 60.9483 5.01575H64.6627C65.1277 5.01575 65.5397 4.71637 65.6834 4.2742L66.8312 0.741543Z"
                fill="#F59E0B" />
            <path
                d="M86.7882 0.741543C87.1095 -0.247181 88.5083 -0.247181 88.8295 0.741543L89.9774 4.2742C90.121 4.71637 90.5331 5.01575 90.998 5.01575H94.7125C95.7521 5.01575 96.1843 6.34607 95.3433 6.95713L92.3382 9.14044C91.9621 9.41371 91.8047 9.89811 91.9483 10.3403L93.0962 13.8729C93.4174 14.8617 92.2858 15.6838 91.4447 15.0728L88.4397 12.8895C88.0635 12.6162 87.5542 12.6162 87.1781 12.8895L84.173 15.0728C83.332 15.6838 82.2003 14.8617 82.5216 13.8729L83.6694 10.3403C83.8131 9.89811 83.6557 9.41371 83.2796 9.14044L80.2745 6.95713C79.4335 6.34607 79.8657 5.01575 80.9053 5.01575H84.6198C85.0847 5.01575 85.4967 4.71637 85.6404 4.2742L86.7882 0.741543Z"
                fill="#F59E0B" />
        </g>
    </symbol>
    <symbol id='menu' width="34" height="25" viewBox="0 0 34 25" fill="none"
        xmlns="http://www.w3.org/2000/svg">
        <path d="M1.25 1H32.75H1.25Z" fill="#918F8F" />
        <path d="M1.25 1H32.75" stroke="#282828" stroke-width="2" stroke-linecap="round" />
        <path d="M1.25 12.1628H32.75H1.25Z" fill="#918F8F" />
        <path d="M1.25 12.1628H32.75" stroke="#282828" stroke-width="2" stroke-linecap="round" />
        <path d="M1.25 23.3257H32.75H1.25Z" fill="#918F8F" />
        <path d="M1.25 23.3257H32.75" stroke="#282828" stroke-width="2" stroke-linecap="round" />
    </symbol>
    <symbol id="download-arrow" viewBox="0 0 28 28" fill="none"
        xmlns="http://www.w3.org/2000/svg">
        <path d="M6.55469 13.5469H22.3588"
            stroke="currentColor"
            stroke-width="2.25773"
            stroke-linecap="round"
            stroke-linejoin="round" />
        <path d="M14.4561 5.64453L22.3581 13.5466L14.4561 21.4487"
            stroke="currentColor"
            stroke-width="2.25773"
            stroke-linecap="round"
            stroke-linejoin="round" />
    </symbol>

    <symbol id='restaurants-icon' width="16" height="21" viewBox="0 0 16 21" fill="none"
        xmlns="http://www.w3.org/2000/svg">
        <path
            d="M12.6161 0.88436C9.71458 0.397922 6.73665 0.397922 3.83508 0.88436C2.77504 1.06207 1.93085 1.87587 1.71831 2.93105C0.744596 7.76505 0.691467 12.7393 1.56171 17.593L1.91601 19.5691C2.02526 20.1785 2.7681 20.422 3.21691 19.9957L7.49357 15.9328C7.9038 15.5431 8.54743 15.5431 8.95766 15.9328L13.2343 19.9957C13.6831 20.422 14.426 20.1785 14.5352 19.5691L14.8895 17.593C15.7598 12.7393 15.7066 7.76505 14.7329 2.93105C14.5204 1.87587 13.6762 1.06207 12.6161 0.88436Z"
            fill="#6C5FBC" />
    </symbol>
    <symbol id='dishes-fav'
        width="22"
        height="19"
        viewBox="0 0 22 19"
        fill="none"
        xmlns="http://www.w3.org/2000/svg"
    >
        <path
            fill-rule="evenodd"
            clip-rule="evenodd"
            d="M0.0214844 6.66277C0.0214844 3.27527 2.99334 0.666992 6.48165 0.666992C8.2798 0.666992 9.86206 1.51012 10.9975 2.60107C12.1329 1.51012 13.7152 0.666992 15.5133 0.666992C19.0016 0.666992 21.9735 3.27527 21.9735 6.66277C21.9735 8.98325 20.9839 11.0239 19.6129 12.7488C18.2443 14.4707 16.4541 15.9322 14.74 17.1197C14.0852 17.5732 13.4229 17.9917 12.8167 18.3004C12.2475 18.5903 11.593 18.8558 10.9975 18.8558C10.402 18.8558 9.74747 18.5903 9.17827 18.3004C8.57208 17.9917 7.90974 17.5732 7.25503 17.1197C5.54091 15.9322 3.75066 14.4707 2.38204 12.7488C1.01106 11.0239 0.0214844 8.98325 0.0214844 6.66277ZM6.48165 2.54859C3.87344 2.54859 1.90309 4.4667 1.90309 6.66277C1.90309 8.42332 2.65044 10.0625 3.85505 11.578C5.06202 13.0966 6.68602 14.4365 8.32655 15.573C8.94732 16.003 9.53203 16.369 10.0322 16.6237C10.5693 16.8972 10.8804 16.9742 10.9975 16.9742C11.1146 16.9742 11.4257 16.8972 11.9628 16.6237C12.463 16.369 13.0477 16.003 13.6684 15.573C15.309 14.4365 16.933 13.0966 18.1399 11.578C19.3445 10.0625 20.0919 8.42332 20.0919 6.66277C20.0919 4.4667 18.1215 2.54859 15.5133 2.54859C14.0154 2.54859 12.6167 3.44351 11.7433 4.57937C11.5652 4.81098 11.2896 4.94671 10.9975 4.94671C10.7053 4.94671 10.4298 4.81098 10.2517 4.57937C9.37831 3.44351 7.97959 2.54859 6.48165 2.54859Z"
            fill="#323142"
        />
    </symbol>
    <symbol id='cart-button' width="16" height="16" viewBox="0 0 16 16" fill="none"
        xmlns="http://www.w3.org/2000/svg">
        <mask id="path-1-inside-1_1_16678" fill="white">
            <path
                d="M15.2818 9.36025H8.94222V15.7891H6.41234V9.36025H0.102539V7.06848H6.41234V0.609863H8.94222V7.06848H15.2818V9.36025Z" />
        </mask>
        <path
            d="M15.2818 9.36025H8.94222V15.7891H6.41234V9.36025H0.102539V7.06848H6.41234V0.609863H8.94222V7.06848H15.2818V9.36025Z"
            fill="black" />
        <path
            d="M15.2818 9.36025V13.4693H19.3908V9.36025H15.2818ZM8.94222 9.36025V5.2512H4.83317V9.36025H8.94222ZM8.94222 15.7891V19.8982H13.0513V15.7891H8.94222ZM6.41234 15.7891H2.30329V19.8982H6.41234V15.7891ZM6.41234 9.36025H10.5214V5.2512H6.41234V9.36025ZM0.102539 9.36025H-4.00651V13.4693H0.102539V9.36025ZM0.102539 7.06848V2.95943H-4.00651V7.06848H0.102539ZM6.41234 7.06848V11.1775H10.5214V7.06848H6.41234ZM6.41234 0.609863V-3.49919H2.30329V0.609863H6.41234ZM8.94222 0.609863H13.0513V-3.49919H8.94222V0.609863ZM8.94222 7.06848H4.83317V11.1775H8.94222V7.06848ZM15.2818 7.06848H19.3908V2.95943H15.2818V7.06848ZM15.2818 5.2512H8.94222V13.4693H15.2818V5.2512ZM4.83317 9.36025V15.7891H13.0513V9.36025H4.83317ZM8.94222 11.6801H6.41234V19.8982H8.94222V11.6801ZM10.5214 15.7891V9.36025H2.30329V15.7891H10.5214ZM6.41234 5.2512H0.102539V13.4693H6.41234V5.2512ZM4.21159 9.36025V7.06848H-4.00651V9.36025H4.21159ZM0.102539 11.1775H6.41234V2.95943H0.102539V11.1775ZM10.5214 7.06848V0.609863H2.30329V7.06848H10.5214ZM6.41234 4.71891H8.94222V-3.49919H6.41234V4.71891ZM4.83317 0.609863V7.06848H13.0513V0.609863H4.83317ZM8.94222 11.1775H15.2818V2.95943H8.94222V11.1775ZM11.1727 7.06848V9.36025H19.3908V7.06848H11.1727Z"
            fill="white" mask="url(#path-1-inside-1_1_16678)" />
    </symbol>
    <symbol id="wallet" width="19" height="19" viewBox="0 0 19 19" fill="none"
        xmlns="http://www.w3.org/2000/svg">
        <path
            d="M10.1187 2.27753L10.0964 2.32966L7.93685 7.3413H5.81453C5.30816 7.3413 4.82412 7.44555 4.38477 7.63172L5.68794 4.51899L5.71773 4.44453L5.76985 4.32538C5.78475 4.2807 5.79964 4.23602 5.82198 4.19878C6.7975 1.94243 7.89961 1.42861 10.1187 2.27753Z"
            stroke="#936DFF" stroke-width="1.11701" stroke-linecap="round" stroke-linejoin="round" />
        <path
            d="M14.1322 7.49023C13.7971 7.38598 13.4396 7.3413 13.0822 7.3413H7.93652L10.0961 2.32966L10.1184 2.27753C10.2301 2.31477 10.3344 2.3669 10.4461 2.41158L12.0918 3.10412C13.0077 3.4839 13.6481 3.87858 14.0354 4.35517C14.1098 4.44453 14.1694 4.52644 14.2215 4.62325C14.2886 4.7275 14.3407 4.83176 14.3705 4.94346C14.4003 5.01048 14.4226 5.0775 14.4375 5.13707C14.6386 5.76259 14.5194 6.52961 14.1322 7.49023Z"
            stroke="#936DFF" stroke-width="1.11701" stroke-linecap="round" stroke-linejoin="round" />
        <path
            d="M16.718 10.9755V12.4276C16.718 12.5765 16.7105 12.7254 16.7031 12.8744C16.5616 15.4733 15.1095 16.7839 12.3542 16.7839H6.54578C6.36706 16.7839 6.18834 16.769 6.01706 16.7467C3.64901 16.5903 2.38307 15.3243 2.22669 12.9563C2.20435 12.785 2.18945 12.6063 2.18945 12.4276V10.9755C2.18945 9.47867 3.09795 8.19039 4.39368 7.63189C4.84048 7.44572 5.31707 7.34147 5.82345 7.34147H13.0914C13.4563 7.34147 13.8138 7.3936 14.1414 7.4904C15.6233 7.94465 16.718 9.32974 16.718 10.9755Z"
            stroke="#936DFF" stroke-width="1.11701" stroke-linecap="round" stroke-linejoin="round" />
        <path
            d="M5.68806 4.519L4.38489 7.63172C3.08916 8.19023 2.18066 9.47851 2.18066 10.9753V8.79341C2.18066 6.67854 3.6849 4.91367 5.68806 4.519Z"
            stroke="#936DFF" stroke-width="1.11701" stroke-linecap="round" stroke-linejoin="round" />
        <path
            d="M16.7152 8.79305V10.9749C16.7152 9.33666 15.628 7.94412 14.1387 7.49732C14.5259 6.52925 14.6376 5.76968 14.4514 5.13671C14.4365 5.06969 14.4142 5.00267 14.3844 4.9431C15.7695 5.65798 16.7152 7.12499 16.7152 8.79305Z"
            stroke="#936DFF" stroke-width="1.11701" stroke-linecap="round" stroke-linejoin="round" />
    </symbol>
    <symbol id="money" width="19" height="19" viewBox="0 0 19 19" fill="none"
        xmlns="http://www.w3.org/2000/svg">
        <path
            d="M13.3507 15.4667H5.90402C3.67001 15.4667 2.18066 14.3497 2.18066 11.7434V6.53068C2.18066 3.92433 3.67001 2.80733 5.90402 2.80733H13.3507C15.5847 2.80733 17.0741 3.92433 17.0741 6.53068V11.7434C17.0741 14.3497 15.5847 15.4667 13.3507 15.4667Z"
            stroke="#22C55E" stroke-width="1.11701" stroke-miterlimit="10" stroke-linecap="round"
            stroke-linejoin="round" />
        <path
            d="M9.62757 11.3711C10.8614 11.3711 11.8616 10.3709 11.8616 9.13704C11.8616 7.90323 10.8614 6.90303 9.62757 6.90303C8.39376 6.90303 7.39355 7.90323 7.39355 9.13704C7.39355 10.3709 8.39376 11.3711 9.62757 11.3711Z"
            stroke="#22C55E" stroke-width="1.11701" stroke-miterlimit="10" stroke-linecap="round"
            stroke-linejoin="round" />
        <path d="M4.78711 7.27536V10.9987" stroke="#22C55E" stroke-width="1.11701"
            stroke-miterlimit="10" stroke-linecap="round" stroke-linejoin="round" />
        <path d="M14.4678 7.27536V10.9987" stroke="#22C55E" stroke-width="1.11701"
            stroke-miterlimit="10" stroke-linecap="round" stroke-linejoin="round" />
    </symbol>


</svg>